<svg width="32" height="24" viewBox="0 0 32 24" fill="none" xmlns="http://www.w3.org/2000/svg">
<path d="M3.23633 1.83594H3.21289L2.17578 2.52148V1.48145L3.23633 0.772461H4.47852V5H3.23633V1.83594Z" fill="black"/>
<path d="M1.75684 11.0996C1.75684 10.666 1.91406 10.3174 2.22852 10.0537C2.54297 9.78809 2.96094 9.65527 3.48242 9.65527C3.99023 9.65527 4.39453 9.77344 4.69531 10.0098C4.99023 10.2441 5.1377 10.5547 5.1377 10.9414C5.1377 11.334 4.90039 11.7402 4.42578 12.1602L3.43262 13.0391V13.0625H5.1875V14H1.83008V13.1738L3.5293 11.6709C3.80469 11.4248 3.94238 11.1943 3.94238 10.9795C3.94238 10.8623 3.89844 10.7656 3.81055 10.6895C3.71875 10.6113 3.59473 10.5723 3.43848 10.5723C3.27637 10.5723 3.14453 10.6211 3.04297 10.7188C2.93945 10.8164 2.8877 10.9424 2.8877 11.0967V11.123H1.75684V11.0996Z" fill="black"/>
<path d="M2.94336 20.4277H3.45898C3.62109 20.4277 3.75 20.3887 3.8457 20.3105C3.93945 20.2324 3.98633 20.126 3.98633 19.9912C3.98633 19.8584 3.93848 19.7529 3.84277 19.6748C3.74707 19.5986 3.61426 19.5605 3.44434 19.5605C3.27832 19.5605 3.14355 19.6074 3.04004 19.7012C2.93652 19.793 2.88477 19.9131 2.88477 20.0615H1.76562C1.76758 19.6377 1.92676 19.2979 2.24316 19.042C2.55957 18.7842 2.97754 18.6553 3.49707 18.6553C3.99707 18.6553 4.39355 18.7598 4.68652 18.9688C4.98145 19.1797 5.12891 19.4639 5.12891 19.8213C5.12891 20.0713 5.0459 20.2852 4.87988 20.4629C4.71777 20.6348 4.50684 20.7441 4.24707 20.791V20.8145C4.56152 20.8496 4.81055 20.9541 4.99414 21.1279C5.18164 21.3076 5.27539 21.54 5.27539 21.8252C5.27539 22.2197 5.10938 22.5342 4.77734 22.7686C4.44531 23.001 3.99902 23.1172 3.43848 23.1172C2.92676 23.1172 2.51172 22.9883 2.19336 22.7305C1.87695 22.4746 1.70801 22.1309 1.68652 21.6992H2.87012C2.87402 21.8398 2.92871 21.9502 3.03418 22.0303C3.13965 22.1123 3.2832 22.1533 3.46484 22.1533C3.62891 22.1533 3.76172 22.1113 3.86328 22.0273C3.96289 21.9453 4.0127 21.8359 4.0127 21.6992C4.0127 21.5605 3.96387 21.4531 3.86621 21.377C3.7666 21.2988 3.62891 21.2598 3.45312 21.2598H2.94336V20.4277Z" fill="black"/>
<rect x="9" y="10" width="23" height="4" rx="2" fill="#333333"/>
<rect x="9" y="1" width="23" height="4" rx="2" fill="#333333"/>
<rect x="9" y="19" width="23" height="4" rx="2" fill="#333333"/>
</svg>
